<?xml version="1.0" encoding="UTF-8" standalone="no"?>
<!DOCTYPE svg PUBLIC "-//W3C//DTD SVG 1.1//EN"
 "http://www.w3.org/Graphics/SVG/1.1/DTD/svg11.dtd">
<!-- Generated by graphviz version 2.38.0 (20140413.2041)
 -->
<!-- Title: Tree Pages: 1 -->
<svg width="597pt" height="477pt"
 viewBox="0.00 0.00 597.00 477.00" xmlns="http://www.w3.org/2000/svg" xmlns:xlink="http://www.w3.org/1999/xlink">
<g id="graph0" class="graph" transform="scale(1 1) rotate(0) translate(4 473)">
<title>Tree</title>
<polygon fill="white" stroke="none" points="-4,4 -4,-473 593,-473 593,4 -4,4"/>
<!-- 0 -->
<g id="node1" class="node"><title>0</title>
<polygon fill="#8139e5" fill-opacity="0.054902" stroke="black" points="292.5,-469 143.5,-469 143.5,-401 292.5,-401 292.5,-469"/>
<text text-anchor="middle" x="218" y="-453.8" font-family="Times New Roman,serif" font-size="14.00">petal width (cm) &lt;= 0.8</text>
<text text-anchor="middle" x="218" y="-438.8" font-family="Times New Roman,serif" font-size="14.00">samples = 112</text>
<text text-anchor="middle" x="218" y="-423.8" font-family="Times New Roman,serif" font-size="14.00">value = [37, 34, 41]</text>
<text text-anchor="middle" x="218" y="-408.8" font-family="Times New Roman,serif" font-size="14.00">class = virginica</text>
</g>
<!-- 1 -->
<g id="node2" class="node"><title>1</title>
<polygon fill="#e58139" stroke="black" points="198,-357.5 86,-357.5 86,-304.5 198,-304.5 198,-357.5"/>
<text text-anchor="middle" x="142" y="-342.3" font-family="Times New Roman,serif" font-size="14.00">samples = 37</text>
<text text-anchor="middle" x="142" y="-327.3" font-family="Times New Roman,serif" font-size="14.00">value = [37, 0, 0]</text>
<text text-anchor="middle" x="142" y="-312.3" font-family="Times New Roman,serif" font-size="14.00">class = setosa</text>
</g>
<!-- 0&#45;&gt;1 -->
<g id="edge1" class="edge"><title>0&#45;&gt;1</title>
<path fill="none" stroke="black" d="M193.325,-400.884C184.967,-389.666 175.623,-377.126 167.223,-365.852"/>
<polygon fill="black" stroke="black" points="169.796,-363.448 161.015,-357.52 164.183,-367.63 169.796,-363.448"/>
<text text-anchor="middle" x="157.402" y="-378.557" font-family="Times New Roman,serif" font-size="14.00">True</text>
</g>
<!-- 2 -->
<g id="node3" class="node"><title>2</title>
<polygon fill="#8139e5" fill-opacity="0.172549" stroke="black" points="374,-365 216,-365 216,-297 374,-297 374,-365"/>
<text text-anchor="middle" x="295" y="-349.8" font-family="Times New Roman,serif" font-size="14.00">petal length (cm) &lt;= 4.95</text>
<text text-anchor="middle" x="295" y="-334.8" font-family="Times New Roman,serif" font-size="14.00">samples = 75</text>
<text text-anchor="middle" x="295" y="-319.8" font-family="Times New Roman,serif" font-size="14.00">value = [0, 34, 41]</text>
<text text-anchor="middle" x="295" y="-304.8" font-family="Times New Roman,serif" font-size="14.00">class = virginica</text>
</g>
<!-- 0&#45;&gt;2 -->
<g id="edge2" class="edge"><title>0&#45;&gt;2</title>
<path fill="none" stroke="black" d="M243,-400.884C249.589,-392.154 256.783,-382.625 263.661,-373.514"/>
<polygon fill="black" stroke="black" points="266.631,-375.389 269.862,-365.299 261.044,-371.172 266.631,-375.389"/>
<text text-anchor="middle" x="273.32" y="-386.359" font-family="Times New Roman,serif" font-size="14.00">False</text>
</g>
<!-- 3 -->
<g id="node4" class="node"><title>3</title>
<polygon fill="#39e581" fill-opacity="0.909804" stroke="black" points="285.5,-261 130.5,-261 130.5,-193 285.5,-193 285.5,-261"/>
<text text-anchor="middle" x="208" y="-245.8" font-family="Times New Roman,serif" font-size="14.00">petal width (cm) &lt;= 1.65</text>
<text text-anchor="middle" x="208" y="-230.8" font-family="Times New Roman,serif" font-size="14.00">samples = 36</text>
<text text-anchor="middle" x="208" y="-215.8" font-family="Times New Roman,serif" font-size="14.00">value = [0, 33, 3]</text>
<text text-anchor="middle" x="208" y="-200.8" font-family="Times New Roman,serif" font-size="14.00">class = versicolor</text>
</g>
<!-- 2&#45;&gt;3 -->
<g id="edge3" class="edge"><title>2&#45;&gt;3</title>
<path fill="none" stroke="black" d="M266.754,-296.884C259.156,-287.976 250.848,-278.235 242.934,-268.957"/>
<polygon fill="black" stroke="black" points="245.555,-266.636 236.402,-261.299 240.229,-271.179 245.555,-266.636"/>
</g>
<!-- 8 -->
<g id="node9" class="node"><title>8</title>
<polygon fill="#8139e5" fill-opacity="0.972549" stroke="black" points="462,-261 304,-261 304,-193 462,-193 462,-261"/>
<text text-anchor="middle" x="383" y="-245.8" font-family="Times New Roman,serif" font-size="14.00">petal length (cm) &lt;= 5.05</text>
<text text-anchor="middle" x="383" y="-230.8" font-family="Times New Roman,serif" font-size="14.00">samples = 39</text>
<text text-anchor="middle" x="383" y="-215.8" font-family="Times New Roman,serif" font-size="14.00">value = [0, 1, 38]</text>
<text text-anchor="middle" x="383" y="-200.8" font-family="Times New Roman,serif" font-size="14.00">class = virginica</text>
</g>
<!-- 2&#45;&gt;8 -->
<g id="edge8" class="edge"><title>2&#45;&gt;8</title>
<path fill="none" stroke="black" d="M323.571,-296.884C331.256,-287.976 339.66,-278.235 347.665,-268.957"/>
<polygon fill="black" stroke="black" points="350.389,-271.157 354.271,-261.299 345.089,-266.585 350.389,-271.157"/>
</g>
<!-- 4 -->
<g id="node5" class="node"><title>4</title>
<polygon fill="#39e581" stroke="black" points="116,-149.5 0,-149.5 0,-96.5 116,-96.5 116,-149.5"/>
<text text-anchor="middle" x="58" y="-134.3" font-family="Times New Roman,serif" font-size="14.00">samples = 32</text>
<text text-anchor="middle" x="58" y="-119.3" font-family="Times New Roman,serif" font-size="14.00">value = [0, 32, 0]</text>
<text text-anchor="middle" x="58" y="-104.3" font-family="Times New Roman,serif" font-size="14.00">class = versicolor</text>
</g>
<!-- 3&#45;&gt;4 -->
<g id="edge4" class="edge"><title>3&#45;&gt;4</title>
<path fill="none" stroke="black" d="M159.299,-192.884C141.509,-180.786 121.457,-167.151 103.917,-155.224"/>
<polygon fill="black" stroke="black" points="105.767,-152.249 95.5293,-149.52 101.83,-158.037 105.767,-152.249"/>
</g>
<!-- 5 -->
<g id="node6" class="node"><title>5</title>
<polygon fill="#8139e5" fill-opacity="0.666667" stroke="black" points="285.5,-157 134.5,-157 134.5,-89 285.5,-89 285.5,-157"/>
<text text-anchor="middle" x="210" y="-141.8" font-family="Times New Roman,serif" font-size="14.00">sepal width (cm) &lt;= 3.1</text>
<text text-anchor="middle" x="210" y="-126.8" font-family="Times New Roman,serif" font-size="14.00">samples = 4</text>
<text text-anchor="middle" x="210" y="-111.8" font-family="Times New Roman,serif" font-size="14.00">value = [0, 1, 3]</text>
<text text-anchor="middle" x="210" y="-96.8" font-family="Times New Roman,serif" font-size="14.00">class = virginica</text>
</g>
<!-- 3&#45;&gt;5 -->
<g id="edge5" class="edge"><title>3&#45;&gt;5</title>
<path fill="none" stroke="black" d="M208.649,-192.884C208.808,-184.778 208.981,-175.982 209.148,-167.472"/>
<polygon fill="black" stroke="black" points="212.65,-167.366 209.347,-157.299 205.652,-167.229 212.65,-167.366"/>
</g>
<!-- 6 -->
<g id="node7" class="node"><title>6</title>
<polygon fill="#8139e5" stroke="black" points="143.5,-53 36.5,-53 36.5,-0 143.5,-0 143.5,-53"/>
<text text-anchor="middle" x="90" y="-37.8" font-family="Times New Roman,serif" font-size="14.00">samples = 3</text>
<text text-anchor="middle" x="90" y="-22.8" font-family="Times New Roman,serif" font-size="14.00">value = [0, 0, 3]</text>
<text text-anchor="middle" x="90" y="-7.8" font-family="Times New Roman,serif" font-size="14.00">class = virginica</text>
</g>
<!-- 5&#45;&gt;6 -->
<g id="edge6" class="edge"><title>5&#45;&gt;6</title>
<path fill="none" stroke="black" d="M168.03,-88.9485C155.949,-79.4346 142.792,-69.074 130.784,-59.6175"/>
<polygon fill="black" stroke="black" points="132.703,-56.6739 122.682,-53.2367 128.372,-62.1734 132.703,-56.6739"/>
</g>
<!-- 7 -->
<g id="node8" class="node"><title>7</title>
<polygon fill="#39e581" stroke="black" points="278,-53 162,-53 162,-0 278,-0 278,-53"/>
<text text-anchor="middle" x="220" y="-37.8" font-family="Times New Roman,serif" font-size="14.00">samples = 1</text>
<text text-anchor="middle" x="220" y="-22.8" font-family="Times New Roman,serif" font-size="14.00">value = [0, 1, 0]</text>
<text text-anchor="middle" x="220" y="-7.8" font-family="Times New Roman,serif" font-size="14.00">class = versicolor</text>
</g>
<!-- 5&#45;&gt;7 -->
<g id="edge7" class="edge"><title>5&#45;&gt;7</title>
<path fill="none" stroke="black" d="M213.498,-88.9485C214.378,-80.6238 215.328,-71.6509 216.222,-63.2027"/>
<polygon fill="black" stroke="black" points="219.705,-63.5495 217.277,-53.2367 212.744,-62.8128 219.705,-63.5495"/>
</g>
<!-- 9 -->
<g id="node10" class="node"><title>9</title>
<polygon fill="#8139e5" fill-opacity="0.666667" stroke="black" points="458.5,-157 305.5,-157 305.5,-89 458.5,-89 458.5,-157"/>
<text text-anchor="middle" x="382" y="-141.8" font-family="Times New Roman,serif" font-size="14.00">sepal length (cm) &lt;= 6.5</text>
<text text-anchor="middle" x="382" y="-126.8" font-family="Times New Roman,serif" font-size="14.00">samples = 4</text>
<text text-anchor="middle" x="382" y="-111.8" font-family="Times New Roman,serif" font-size="14.00">value = [0, 1, 3]</text>
<text text-anchor="middle" x="382" y="-96.8" font-family="Times New Roman,serif" font-size="14.00">class = virginica</text>
</g>
<!-- 8&#45;&gt;9 -->
<g id="edge9" class="edge"><title>8&#45;&gt;9</title>
<path fill="none" stroke="black" d="M382.675,-192.884C382.596,-184.778 382.51,-175.982 382.426,-167.472"/>
<polygon fill="black" stroke="black" points="385.924,-167.265 382.326,-157.299 378.925,-167.333 385.924,-167.265"/>
</g>
<!-- 12 -->
<g id="node13" class="node"><title>12</title>
<polygon fill="#8139e5" stroke="black" points="589,-149.5 477,-149.5 477,-96.5 589,-96.5 589,-149.5"/>
<text text-anchor="middle" x="533" y="-134.3" font-family="Times New Roman,serif" font-size="14.00">samples = 35</text>
<text text-anchor="middle" x="533" y="-119.3" font-family="Times New Roman,serif" font-size="14.00">value = [0, 0, 35]</text>
<text text-anchor="middle" x="533" y="-104.3" font-family="Times New Roman,serif" font-size="14.00">class = virginica</text>
</g>
<!-- 8&#45;&gt;12 -->
<g id="edge12" class="edge"><title>8&#45;&gt;12</title>
<path fill="none" stroke="black" d="M431.701,-192.884C449.491,-180.786 469.543,-167.151 487.083,-155.224"/>
<polygon fill="black" stroke="black" points="489.17,-158.037 495.471,-149.52 485.233,-152.249 489.17,-158.037"/>
</g>
<!-- 10 -->
<g id="node11" class="node"><title>10</title>
<polygon fill="#8139e5" stroke="black" points="424.5,-53 317.5,-53 317.5,-0 424.5,-0 424.5,-53"/>
<text text-anchor="middle" x="371" y="-37.8" font-family="Times New Roman,serif" font-size="14.00">samples = 3</text>
<text text-anchor="middle" x="371" y="-22.8" font-family="Times New Roman,serif" font-size="14.00">value = [0, 0, 3]</text>
<text text-anchor="middle" x="371" y="-7.8" font-family="Times New Roman,serif" font-size="14.00">class = virginica</text>
</g>
<!-- 9&#45;&gt;10 -->
<g id="edge10" class="edge"><title>9&#45;&gt;10</title>
<path fill="none" stroke="black" d="M378.153,-88.9485C377.184,-80.6238 376.139,-71.6509 375.156,-63.2027"/>
<polygon fill="black" stroke="black" points="378.629,-62.7649 373.996,-53.2367 371.676,-63.5743 378.629,-62.7649"/>
</g>
<!-- 11 -->
<g id="node12" class="node"><title>11</title>
<polygon fill="#39e581" stroke="black" points="559,-53 443,-53 443,-0 559,-0 559,-53"/>
<text text-anchor="middle" x="501" y="-37.8" font-family="Times New Roman,serif" font-size="14.00">samples = 1</text>
<text text-anchor="middle" x="501" y="-22.8" font-family="Times New Roman,serif" font-size="14.00">value = [0, 1, 0]</text>
<text text-anchor="middle" x="501" y="-7.8" font-family="Times New Roman,serif" font-size="14.00">class = versicolor</text>
</g>
<!-- 9&#45;&gt;11 -->
<g id="edge11" class="edge"><title>9&#45;&gt;11</title>
<path fill="none" stroke="black" d="M423.62,-88.9485C435.601,-79.4346 448.648,-69.074 460.556,-59.6175"/>
<polygon fill="black" stroke="black" points="462.936,-62.1965 468.591,-53.2367 458.583,-56.7147 462.936,-62.1965"/>
</g>
</g>
</svg>
